<?xml version="1.0" encoding="UTF-8"?>
<svg id="Layer_1" data-name="Layer 1" xmlns="http://www.w3.org/2000/svg" version="1.1" viewBox="0 0 283.4 213.6">
  <defs>
    <style>
      .cls-1 {
        fill: #000;
        stroke-width: 0px;
      }
    </style>
  </defs>
  <path class="cls-1" d="M14.2,197.3h-6.2v1.3h2.4v6.4h1.4v-6.4h2.4v-1.3ZM15,199h1.5v-1.5h-1.5v1.5ZM15,205h1.4v-5.2h-1.4v5.2ZM19,199.8h-1.4v7.9h1.4v-3.5c.3.6.9.9,1.6.9,1.6,0,2.3-1.1,2.3-2.7s-.8-2.7-2.3-2.7-1.4.4-1.6.9v-.8ZM20.2,204.1c-.8,0-1.3-.5-1.3-1.6s.5-1.6,1.3-1.6,1.2.7,1.2,1.6-.4,1.6-1.2,1.6h0ZM26.3,205.1c1.7,0,2.7-1.1,2.7-2.7s-1-2.7-2.7-2.7-2.7,1.1-2.7,2.7,1,2.7,2.7,2.7h0ZM26.3,204.1c-.9,0-1.3-.7-1.3-1.6s.4-1.6,1.3-1.6,1.3.7,1.3,1.6-.4,1.6-1.3,1.6h0ZM35.6,197.3v3.3c-.3-.5-.9-.9-1.6-.9-1.6,0-2.3,1.1-2.3,2.7s.8,2.7,2.3,2.7,1.4-.3,1.6-.9v.8h1.4v-7.8h-1.4ZM34.3,204.1c-.9,0-1.2-.7-1.2-1.6s.4-1.6,1.2-1.6,1.2.5,1.2,1.6-.5,1.6-1.2,1.6h0ZM43.2,202.4c0-1.6-.9-2.7-2.6-2.7s-2.7,1.2-2.7,2.7,1,2.7,2.7,2.7,2.2-.9,2.4-1.5l-1.2-.5c-.2.5-.5.9-1.2.9s-1.2-.4-1.3-1.3h3.8v-.4ZM40.7,200.8c.7,0,1,.5,1.1,1.1h-2.4c.1-.7.6-1.1,1.2-1.1h0ZM52.7,199.7c-.7,0-1.4.3-1.8,1.1-.3-.7-.8-1.1-1.7-1.1s-1.3.3-1.7.9v-.8h-1.4v5.2h1.4v-2.8c0-.9.4-1.4,1.2-1.4s1,.5,1,1.1v3.1h1.4v-2.8c0-.9.5-1.4,1.2-1.4s1,.5,1,1.1v3.1h1.4v-3.3c0-1.2-.6-2-1.9-2h0ZM57.2,205.1c.7,0,1.3-.2,1.7-.9v.7h1.4v-3.4c0-1.2-.8-1.9-2.3-1.9s-2.2.8-2.4,1.5l1.2.3c.2-.4.5-.7,1.1-.7s.9.3.9.8v.2h-.8c-1.3.3-2.5.6-2.5,1.9s.7,1.5,1.8,1.5h0ZM57.6,204.1c-.5,0-.8-.2-.8-.6,0-.6.4-.6,1.1-.7h.8c0-.1,0,0,0,0,0,.9-.5,1.3-1.1,1.3h0ZM61.3,199.8v5.2h1.4v-2.5c0-.8.4-1.3,1-1.3s.5,0,.8.2l.4-1.5c-.2-.1-.5-.2-.8-.2-.6,0-1.2.4-1.4,1.2v-1.1h-1.4ZM67.6,199.7c-1.8,0-2.7,1.2-2.7,2.7s1,2.7,2.7,2.7,2.4-1,2.6-1.9l-1.2-.4c-.2.6-.5,1.2-1.3,1.2s-1.3-.5-1.3-1.6.5-1.6,1.3-1.6,1.2.6,1.3,1.2l1.2-.4c-.2-.9-.9-1.9-2.6-1.9h0ZM72.5,205.1c.7,0,1.3-.2,1.7-.9v.7h1.4v-3.4c0-1.2-.8-1.9-2.3-1.9s-2.2.8-2.4,1.5l1.2.3c.2-.4.4-.7,1.1-.7s1,.3,1,.8v.2h-.9c-1.3.3-2.5.6-2.5,1.9s.7,1.5,1.7,1.5h0ZM73,204.1c-.5,0-.8-.2-.8-.6,0-.6.5-.6,1.1-.7h.9c0-.1,0,0,0,0,0,.9-.5,1.3-1.1,1.3h0ZM79.2,204.1c-.8,0-1.3-.5-1.3-1.6s.5-1.6,1.3-1.6,1.2.6,1.4,1.2l1.2-.4c-.2-.9-.9-1.9-2.6-1.9s-2.7,1.2-2.7,2.7.9,2.6,2.4,2.7l-.2.7c.8,0,1,0,1,.4s-.2.4-1.2.4v.7c1.5,0,2.2-.3,2.2-1s-.4-.8-1.3-.8v-.3c1.6,0,2.3-1.1,2.5-1.9l-1.2-.4c-.2.6-.5,1.2-1.4,1.2h0ZM83.1,199h.8c0-.2,0-.3.3-.3.3,0,.9.3,1.4.3s.9-.3.9-1.3h-.8c0,.2,0,.3-.3.3-.3,0-1-.3-1.4-.3s-.9.3-.9,1.3h0ZM84.1,205.1c.7,0,1.3-.2,1.7-.9v.7h1.4v-3.4c0-1.2-.8-1.9-2.3-1.9s-2.2.8-2.4,1.5l1.2.3c.2-.4.5-.7,1.1-.7s.9.3.9.8v.2h-.8c-1.3.3-2.5.6-2.5,1.9s.7,1.5,1.8,1.5h0ZM84.5,204.1c-.5,0-.8-.2-.8-.6,0-.6.4-.6,1.1-.7h.8c0-.1,0,0,0,0,0,.9-.5,1.3-1.1,1.3h0ZM90.7,205.1c1.7,0,2.7-1.1,2.7-2.7s-1-2.7-2.7-2.7-2.7,1.1-2.7,2.7,1,2.7,2.7,2.7h0ZM90.7,204.1c-.9,0-1.3-.7-1.3-1.6s.4-1.6,1.3-1.6,1.3.7,1.3,1.6-.4,1.6-1.3,1.6h0ZM94.3,201.5h1.5v-1.5h-1.5v1.5ZM94.3,204.3h1.5v-1.5h-1.5v1.5ZM106.2,205h4.1v-.5h-3.5v-5.9h-.6v6.4ZM112.3,205.1c.6,0,1.2-.2,1.4-.8v.7h.5v-2.9c0-.9-.5-1.5-1.6-1.5s-1.5.5-1.7,1.1h.5c.2-.3.5-.7,1.2-.7s1,.3,1,1v.3l-.9.2c-1.1.2-2,.4-2,1.4s.6,1.1,1.4,1.1h0ZM112.4,204.7c-.7,0-1-.3-1-.7,0-.7.6-.8,1.4-.9l.9-.2v.3c0,1.3-.7,1.6-1.3,1.6h0ZM116.9,200.7c-.9,0-1.7.4-1.7,1.2,0,1.8,2.9.8,2.9,2s-.5.8-1.2.8-1.2-.3-1.5-.7l-.3.3c.3.5,1,.8,1.8.8s1.8-.4,1.8-1.3c0-1.8-2.9-.7-2.9-2s.5-.7,1.1-.7,1,.3,1.3.6l.4-.3c-.3-.5-.8-.8-1.6-.8h0ZM123.3,202.8c0-1.2-.7-2.1-2-2.1s-2.1.9-2.1,2.2.9,2.2,2.1,2.2,1.8-.8,2-1.4l-.5-.2c-.2.5-.5,1.1-1.5,1.1s-1.5-.7-1.6-1.7h3.6v-.3ZM121.3,201.1c1,0,1.4.7,1.5,1.4h-3c.1-.9.7-1.4,1.6-1.4h0ZM124.2,200.8v4.3h.5v-2.2c0-1,.5-1.6,1.1-1.6s.4,0,.5.1l.2-.5c-.2-.1-.4-.2-.7-.2-.5,0-1,.3-1.2.9v-.8h-.5ZM128.8,205l3.2-6.4h-.5l-3.2,6.4h.6ZM134.1,205h4v-.5h-3.5v-5.9h-.5v6.4ZM140.2,205.1c.6,0,1.2-.2,1.4-.8v.7h.5v-2.9c0-.9-.5-1.5-1.6-1.5s-1.5.5-1.7,1.1h.5c.2-.3.5-.7,1.3-.7s1,.3,1,1v.3l-.9.2c-1.1.2-2,.4-2,1.4s.6,1.1,1.4,1.1h0ZM140.2,204.7c-.7,0-1-.3-1-.7,0-.7.6-.8,1.4-.9l.9-.2v.3c0,1.3-.7,1.6-1.3,1.6h0ZM144.7,200.7c-.9,0-1.7.4-1.7,1.2,0,1.8,2.9.8,2.9,2s-.5.8-1.2.8-1.2-.3-1.5-.7l-.3.3c.3.5,1,.8,1.8.8s1.8-.4,1.8-1.3c0-1.8-2.9-.7-2.9-2s.5-.7,1.1-.7,1,.3,1.3.6l.4-.3c-.3-.5-.8-.8-1.6-.8h0ZM151.2,202.8c0-1.2-.7-2.1-2-2.1s-2.1.9-2.1,2.2.9,2.2,2.1,2.2,1.8-.8,2-1.4l-.5-.2c-.2.5-.5,1.1-1.5,1.1s-1.5-.7-1.6-1.7h3.6v-.3ZM149.2,201.1c1,0,1.4.7,1.5,1.4h-3c.1-.9.7-1.4,1.6-1.4h0ZM152,200.8v4.3h.5v-2.2c0-1,.5-1.6,1.1-1.6s.4,0,.5.1l.2-.5c-.2-.1-.4-.2-.7-.2-.5,0-1,.3-1.2.9v-.8h-.5Z"/>
  <path class="cls-1" d="M8.2,184.6h1.4v-2.6h1.6c1.8,0,2.7-1.1,2.7-2.6s-.9-2.5-2.7-2.5h-3v7.8ZM9.6,180.6v-2.4h1.6c.7,0,1.3.3,1.3,1.2s-.6,1.2-1.3,1.2h-1.6ZM14.8,179.4v5.2h1.4v-2.5c0-.8.4-1.3,1-1.3s.5,0,.7.2l.5-1.5c-.2-.1-.5-.2-.8-.2-.6,0-1.2.4-1.4,1.2v-1.1h-1.4ZM21.1,184.7c1.7,0,2.7-1.1,2.7-2.7s-1-2.7-2.7-2.7-2.7,1.1-2.7,2.7,1,2.7,2.7,2.7h0ZM21.1,183.6c-.9,0-1.3-.7-1.3-1.6s.4-1.6,1.3-1.6,1.3.7,1.3,1.6-.4,1.6-1.3,1.6h0ZM28.5,176.8v3.3c-.3-.5-.9-.9-1.6-.9-1.6,0-2.3,1.1-2.3,2.7s.8,2.7,2.3,2.7,1.4-.3,1.6-.9v.8h1.4v-7.8h-1.4ZM27.3,183.6c-.9,0-1.2-.7-1.2-1.6s.4-1.6,1.2-1.6,1.2.5,1.2,1.6-.5,1.6-1.2,1.6h0ZM36,179.4h-1.4v2.8c0,.9-.5,1.4-1.2,1.4s-1-.4-1-1.1v-3.1h-1.4v3.3c0,1.2.6,2,1.9,2s1.3-.3,1.7-.9v.8h1.4v-5.2ZM40.3,183.5c-.2.1-.4.2-.7.2-.6,0-.8-.4-.8-.9v-2.3h1.6v-1.1h-1.6v-1.4h-1v.3c-.3,1-.5,1.1-1.1,1.1h0v1.1h.7v2.3c0,1.2.6,1.9,2,1.9s1-.1,1.2-.3l-.4-.9ZM43.6,184.7c1.7,0,2.7-1.1,2.7-2.7s-1-2.7-2.7-2.7-2.7,1.1-2.7,2.7,1,2.7,2.7,2.7h0ZM43.6,183.6c-.9,0-1.3-.7-1.3-1.6s.4-1.6,1.3-1.6,1.3.7,1.3,1.6-.4,1.6-1.3,1.6h0ZM47.2,181h1.5v-1.5h-1.5v1.5ZM47.2,183.8h1.5v-1.5h-1.5v1.5ZM59.2,184.6h.5v-5.5l3.8,5.5h.6v-6.4h-.5v5.5l-3.8-5.5h-.6v6.4ZM66.4,184.7c.6,0,1.2-.2,1.4-.8v.7h.5v-2.9c0-.9-.5-1.5-1.6-1.5s-1.5.5-1.7,1.1l.4.2c.2-.5.5-.8,1.3-.8s1,.3,1,1v.3l-.9.2c-1.1.2-2,.4-2,1.4s.6,1.1,1.4,1.1h0ZM66.5,184.2c-.7,0-1-.3-1-.7,0-.7.6-.8,1.4-.9l.9-.2v.3c0,1.3-.7,1.6-1.4,1.6h0ZM71.8,184.1c-.2,0-.4.1-.6.1-.5,0-.9-.3-.9-.9v-2.6h1.5v-.5h-1.5v-1.2h-.4v.3c-.2.8-.3.9-.9.9h0v.5h.8v2.6c0,.9.6,1.3,1.4,1.3s.6,0,.9-.3l-.2-.3ZM76,180.3h-.5v2.3c0,1.1-.7,1.6-1.4,1.6s-1.1-.5-1.1-1.2v-2.7h-.6v2.7c0,.9.4,1.7,1.6,1.7s1.2-.3,1.5-.9v.8h.5v-4.3ZM77.1,180.3v4.3h.5v-2.2c0-1,.5-1.6,1.1-1.6s.4,0,.6.1l.2-.5c-.2-.1-.5-.2-.7-.2-.5,0-1,.3-1.2.9v-.8h-.5ZM90.4,184.6h.5v-1.5h.9v-.5h-.9v-4.3h-.7l-3.1,4.3v.5h3.2v1.5ZM87.7,182.5l2.6-3.7v3.7h-2.6ZM101.3,184.6l-1.6-2.2,1.5-2.1h-.6l-1.2,1.7-1.2-1.7h-.7l1.5,2.1-1.6,2.2h.6l1.3-1.8,1.3,1.8h.7ZM101.7,184.6h4.3v-.5h-3.7v-.2c0-1.7,3.6-1.7,3.6-4s-.9-1.8-2-1.8-2.1.4-2.1,1.7h.5c0-.9.7-1.3,1.5-1.3s1.5.5,1.5,1.3c0,1.9-3.6,1.8-3.6,4v.7ZM109.8,184.6h.5v-1.5h.9v-.5h-.9v-4.3h-.7l-3.1,4.3v.5h3.2v1.5ZM107.2,182.5l2.6-3.7v3.7h-2.6ZM81.3,184.7c.6,0,1.2-.2,1.4-.8v.7h.5v-2.9c0-.9-.5-1.5-1.6-1.5s-1.5.5-1.7,1.1l.5.2c.2-.5.5-.8,1.3-.8s1,.3,1,1v.3l-.9.2c-1.1.2-2,.4-2,1.4s.6,1.1,1.4,1.1h0ZM81.4,184.2c-.7,0-1-.3-1-.7,0-.7.6-.8,1.4-.9l.9-.2v.3c0,1.3-.7,1.6-1.4,1.6h0ZM84.3,178.2v6.4h.5v-6.4h-.5ZM94.6,178.1c-1.4,0-2.1,1-2.1,2.1s.7,2,2.1,2,1.5-.3,1.8-1.1h0c0,2.5-1.1,3-1.9,3s-1.4-.5-1.4-1.3h-.5c0,1.2.8,1.8,1.8,1.8s2.5-.7,2.5-3.6-.8-3-2.3-3h0ZM94.6,181.8c-1,0-1.6-.6-1.6-1.6s.7-1.6,1.6-1.6,1.6.8,1.6,1.6-.5,1.6-1.6,1.6h0Z"/>
  <path class="cls-1" d="M8,163.1h1.4v-2.6h1.6c1.9,0,2.8-1.1,2.8-2.6s-.9-2.5-2.8-2.5h-3v7.8ZM9.4,159.1v-2.4h1.6c.7,0,1.3.3,1.3,1.2s-.6,1.2-1.3,1.2h-1.6ZM15.9,163.2c.6,0,1.3-.2,1.6-.9v.7h1.4v-3.4c0-1.2-.8-1.9-2.3-1.9s-2.2.8-2.4,1.5l1.2.3c.2-.4.5-.7,1.1-.7s1,.3,1,.8v.2l-.8.2c-1.3.2-2.5.5-2.5,1.8s.7,1.5,1.8,1.5h0ZM16.4,162.2c-.5,0-.8-.2-.8-.6s.4-.6,1.1-.7h.8c0-.1,0,0,0,0,0,.9-.5,1.3-1.1,1.3h0ZM20.2,157.1h1l1.2-1.7h-1.4l-.8,1.7ZM20,163.1h1.4v-5.2h-1.4v5.2ZM24.7,157.8c-1.2,0-2.3.5-2.3,1.6,0,2.2,3.2,1.3,3.2,2.2s-.5.5-1,.5c-.8,0-1.3-.4-1.7-.8l-.7.9c.6.6,1.4.9,2.4.9,1.4,0,2.4-.6,2.4-1.7,0-2.1-3.2-1.3-3.2-2.2s.3-.4.8-.4,1.1.3,1.4.7l.8-.8c-.5-.6-1.2-.9-2.2-.9h0ZM27.9,159.6h1.5v-1.5h-1.5v1.5ZM27.9,162.4h1.5v-1.5h-1.5v1.5ZM39.8,163.1h.5v-2.6h1.8c1.4,0,2.1-.8,2.1-1.9s-.7-1.9-2.1-1.9h-2.3v6.4ZM40.4,160v-2.8h1.8c.8,0,1.5.3,1.5,1.4s-.7,1.4-1.5,1.4h-1.8ZM46.6,163.2c1.2,0,2.1-.9,2.1-2.2s-.9-2.2-2.1-2.2-2.1.9-2.1,2.2.9,2.2,2.1,2.2h0ZM46.6,162.8c-1.1,0-1.6-.9-1.6-1.8s.5-1.8,1.6-1.8,1.6.9,1.6,1.8-.5,1.8-1.6,1.8h0ZM49.6,158.9v4.3h.5v-2.2c0-1,.5-1.6,1.1-1.6s.4,0,.6.1l.2-.5c-.2-.1-.5-.2-.7-.2-.5,0-1,.3-1.2.9v-.8h-.5ZM55.1,162.6c-.1,0-.4.1-.6.1-.5,0-.9-.3-.9-.9v-2.6h1.5v-.5h-1.5v-1.2h-.4v.3c-.2.8-.3.9-.9.9h-.1v.5h.9v2.6c0,.9.5,1.3,1.3,1.3s.6,0,.9-.3l-.2-.3ZM59.3,158.9h-.5v2.3c0,1.1-.7,1.6-1.4,1.6s-1.2-.5-1.2-1.2v-2.7h-.5v2.7c0,.9.4,1.7,1.6,1.7s1.2-.3,1.5-.9v.8h.5v-4.3ZM64.3,158.9h-1.6c-.2,0-.4,0-.7,0-.9,0-1.8.4-1.8,1.6s.4,1.2.8,1.4c-.4,0-.8.3-.8.7s.2.5.4.7c-.5.1-.9.5-.9,1,0,.8.7,1.2,2,1.2s2.4-.6,2.4-1.5-.9-1.2-1.6-1.2h-1.4c-.2,0-.5,0-.5-.3s.3-.4.5-.4h.8c.9,0,1.8-.4,1.8-1.6s-.1-.9-.4-1.1h.8v-.4ZM62.1,161.6c-.6,0-1.2-.3-1.2-1.2s.6-1.2,1.2-1.2,1.2.3,1.2,1.2-.6,1.2-1.2,1.2h0ZM63.7,164c0,.5-.4.9-1.8.9s-1.5-.3-1.5-.9.4-.8,1.1-.8h1.1c.6,0,1.1.1,1.1.7h0ZM65.9,163.2c.6,0,1.2-.2,1.4-.8v.7h.5v-2.9c0-.9-.5-1.5-1.6-1.5s-1.5.5-1.7,1.1l.4.2c.2-.5.5-.8,1.3-.8s1,.3,1,1v.3l-.9.2c-1.1.2-2,.4-2,1.4s.6,1.1,1.4,1.1h0ZM66,162.8c-.7,0-1-.3-1-.7,0-.7.6-.8,1.4-.9l.9-.2v.3c0,1.3-.7,1.6-1.4,1.6h0ZM68.9,156.8v6.4h.5v-6.4h-.5Z"/>
  <path class="cls-1" d="M11.5,140.7c-1.5,0-2.4-1.1-2.4-2.7s.9-2.7,2.4-2.7,2.2.8,2.4,2.1l1.4-.5c-.4-1.7-1.8-2.9-3.8-2.9s-3.9,1.8-3.9,4,1.5,4,3.9,4,3.4-1.2,3.8-2.9l-1.4-.5c-.2,1.3-1.1,2.1-2.4,2.1h0ZM18.7,142c1.7,0,2.7-1.1,2.7-2.7s-1-2.7-2.7-2.7-2.7,1.1-2.7,2.7,1,2.7,2.7,2.7h0ZM18.7,140.9c-.9,0-1.3-.7-1.3-1.6s.4-1.6,1.3-1.6,1.3.7,1.3,1.6-.4,1.6-1.3,1.6h0ZM29,136.6c-.7,0-1.4.3-1.8,1.1-.3-.7-.8-1.1-1.7-1.1s-1.3.3-1.7.9v-.8h-1.4v5.2h1.4v-2.8c0-.9.4-1.4,1.2-1.4s1,.5,1,1.1v3.1h1.4v-2.8c0-.9.4-1.4,1.2-1.4s1,.5,1,1.1v3.1h1.4v-3.3c0-1.2-.6-2-1.9-2h0ZM37,139.2c0-1.6-.9-2.6-2.6-2.6s-2.7,1.1-2.7,2.7,1,2.7,2.7,2.7,2.2-.9,2.4-1.5l-1.2-.5c-.2.5-.5.9-1.2.9s-1.2-.4-1.3-1.3h3.8v-.5ZM34.4,137.7c.7,0,1,.5,1.1,1.1h-2.4c.1-.7.6-1.1,1.2-1.1h0ZM37.9,136.7v5.2h1.4v-2.5c0-.8.4-1.3,1-1.3s.5,0,.7.2l.5-1.5c-.2-.1-.5-.2-.8-.2-.6,0-1.2.4-1.4,1.2v-1.1h-1.4ZM44.2,136.6c-1.7,0-2.7,1.1-2.7,2.7s1,2.7,2.7,2.7,2.4-1,2.6-1.9l-1.2-.4c-.2.6-.5,1.2-1.3,1.2s-1.3-.5-1.3-1.6.5-1.6,1.3-1.6,1.2.6,1.3,1.2l1.2-.5c-.2-.8-.9-1.9-2.6-1.9h0ZM47.7,135.8h1.5v-1.5h-1.5v1.5ZM47.7,141.9h1.4v-5.2h-1.4v5.2ZM51.8,142c.6,0,1.3-.2,1.6-.9v.7h1.4v-3.4c0-1.2-.8-1.9-2.3-1.9s-2.2.8-2.4,1.5l1.2.3c.2-.4.5-.7,1.1-.7s1,.3,1,.8v.2h-.9c-1.3.3-2.5.6-2.5,1.9s.7,1.5,1.8,1.5h0ZM52.3,141c-.5,0-.8-.2-.8-.6s.5-.6,1.1-.7h.9c0-.1,0,0,0,0,0,.9-.5,1.3-1.1,1.3h0ZM55.9,134.1v7.8h1.4v-7.8h-1.4ZM58.4,138.3h1.5v-1.5h-1.5v1.5ZM58.4,141.1h1.5v-1.5h-1.5v1.5ZM74.7,141.9h.6l-2.4-6.4h-.6l-2.4,6.4h.6l.6-1.5h3.1l.6,1.5ZM71.2,139.8l1.4-3.7,1.4,3.7h-2.7ZM81,137.5c-.7,0-1.2.3-1.6,1-.1-.6-.6-1-1.5-1s-1.2.3-1.5.9v-.8h-.5v4.3h.5v-2.3c0-1.1.7-1.6,1.4-1.6s1.2.5,1.2,1.2v2.7h.5v-2.3c0-1.1.7-1.6,1.4-1.6s1.1.5,1.1,1.2v2.7h.5v-2.7c0-.9-.4-1.6-1.6-1.6h0ZM85.5,142c1.2,0,2.1-.9,2.1-2.2s-.9-2.2-2.1-2.2-2.1.9-2.1,2.2.9,2.2,2.1,2.2h0ZM85.5,141.5c-1.1,0-1.6-.9-1.6-1.8s.5-1.8,1.6-1.8,1.6.9,1.6,1.8-.5,1.8-1.6,1.8h0ZM88.5,137.6v4.3h.5v-2.2c0-1,.5-1.6,1.1-1.6s.4,0,.5.1l.2-.5c-.2-.1-.4-.2-.7-.2-.5,0-1,.3-1.2.9v-.8h-.5ZM91.3,136.8h.6v-.9h-.6v.9ZM91.3,141.9h.5v-4.3h-.5v4.3ZM98.1,137.5c-.7,0-1.2.3-1.6,1-.2-.6-.6-1-1.5-1s-1.2.3-1.5.9v-.8h-.5v4.3h.5v-2.3c0-1.1.7-1.6,1.4-1.6s1.2.5,1.2,1.2v2.7h.5v-2.3c0-1.1.7-1.6,1.4-1.6s1.2.5,1.2,1.2v2.7h.5v-2.7c0-.9-.4-1.6-1.6-1.6h0ZM105.1,141.5c-1.5,0-2.6-1.2-2.6-2.8s1-2.8,2.6-2.8,2.3.9,2.5,2.2h.5c-.3-1.6-1.4-2.7-3-2.7s-3.1,1.5-3.1,3.3,1.2,3.3,3.1,3.3,2.7-1.1,3-2.5h-.5c-.2,1.1-1.1,2-2.5,2h0ZM110.8,142c1.2,0,2.1-.9,2.1-2.2s-.9-2.2-2.1-2.2-2.1.9-2.1,2.2.9,2.2,2.1,2.2h0ZM110.8,141.5c-1.1,0-1.6-.9-1.6-1.8s.5-1.8,1.6-1.8,1.6.9,1.6,1.8-.5,1.8-1.6,1.8h0ZM113.8,137.6v4.3h.6v-2.2c0-1,.5-1.6,1.1-1.6s.4,0,.6.1l.2-.5c-.2-.1-.5-.2-.7-.2-.5,0-1,.3-1.2.9v-.8h-.6ZM119.7,141.9h.7l-1.9-2.6,1.8-1.7h-.7l-2.4,2.2v-4.3h-.5v6.4h.5v-1.4l.9-.8,1.7,2.2Z"/>
  <path class="cls-1" d="M11.3,119.4c-1.5,0-2.4-1.1-2.4-2.7s.9-2.7,2.4-2.7,2.2.8,2.4,2.1l1.4-.5c-.4-1.7-1.8-2.9-3.8-2.9s-3.9,1.8-3.9,4,1.5,4,3.9,4,3.4-1.2,3.8-2.9l-1.4-.5c-.2,1.3-1.1,2.1-2.4,2.1h0ZM15.9,112.8v7.8h1.4v-7.8h-1.4ZM18.4,114.5h1.4v-1.5h-1.4v1.5ZM18.4,120.6h1.4v-5.2h-1.4v5.2ZM26.1,117.9c0-1.6-.9-2.6-2.6-2.6s-2.7,1.1-2.7,2.7,1,2.7,2.7,2.7,2.2-.9,2.4-1.5l-1.2-.5c-.2.5-.5.9-1.2.9s-1.2-.4-1.3-1.3h3.9v-.5ZM23.5,116.4c.7,0,1,.5,1.1,1.1h-2.4c.1-.7.6-1.1,1.3-1.1h0ZM27,115.4v5.2h1.4v-2.8c0-.9.5-1.4,1.2-1.4s1,.5,1,1.1v3.1h1.4v-3.3c0-1.2-.6-2-1.9-2s-1.3.3-1.7.9v-.8h-1.4ZM36.2,119.5c-.2.1-.4.2-.7.2-.6,0-.8-.4-.8-.9v-2.4h1.6v-1.1h-1.6v-1.4h-1v.3c-.3,1-.5,1.1-1.1,1.1h0v1.1h.7v2.4c0,1.2.6,1.9,2,1.9s1-.1,1.2-.3l-.4-.9ZM42.1,117.9c0-1.6-.9-2.6-2.6-2.6s-2.7,1.1-2.7,2.7,1,2.7,2.7,2.7,2.2-.9,2.4-1.5l-1.2-.5c-.2.5-.5.9-1.2.9s-1.2-.4-1.3-1.3h3.9v-.5ZM39.5,116.4c.7,0,1,.5,1.1,1.1h-2.4c.1-.7.6-1.1,1.3-1.1h0ZM43,117h1.5v-1.5h-1.5v1.5ZM43,119.8h1.5v-1.5h-1.5v1.5ZM57.7,120.2c-1.5,0-2.5-1.2-2.5-2.8s1-2.8,2.5-2.8,2.3.9,2.5,2.2h.5c-.3-1.6-1.4-2.7-3-2.7s-3.1,1.5-3.1,3.3,1.2,3.3,3.1,3.3,2.7-1.1,3-2.5h-.5c-.2,1.1-1.2,2-2.5,2h0ZM63.5,120.7c1.2,0,2.1-.9,2.1-2.2s-.9-2.2-2.1-2.2-2.1.9-2.1,2.2.9,2.2,2.1,2.2h0ZM63.5,120.2c-1.1,0-1.6-.9-1.6-1.8s.5-1.8,1.6-1.8,1.6.9,1.6,1.8-.5,1.8-1.6,1.8h0ZM66.5,116.3v4.3h.5v-2.2c0-1,.5-1.6,1.1-1.6s.4,0,.6.1l.2-.5c-.2-.1-.5-.2-.7-.2-.5,0-1,.3-1.2.9v-.8h-.5ZM72.4,120.6h.7l-1.9-2.6,1.8-1.7h-.7l-2.4,2.2v-4.3h-.5v6.4h.5v-1.4l.9-.8,1.6,2.2ZM73.5,115.5h.6v-.9h-.6v.9ZM73.5,120.6h.5v-4.3h-.5v4.3ZM76.9,114.2c-.8,0-1.4.4-1.4,1.3v.7h-.8v.5h.8v3.8h.6v-3.8h1.2v-.5h-1.2v-.7c0-.6.3-.9.9-.9h.8v.9h.6v-1.3h-1.4ZM77.8,120.6h.5v-4.3h-.5v4.3ZM83.3,118.3c0-1.2-.7-2.1-2-2.1s-2.1.9-2.1,2.2.8,2.2,2.1,2.2,1.8-.8,2-1.4l-.5-.2c-.2.5-.5,1.1-1.5,1.1s-1.5-.7-1.6-1.7h3.6v-.3ZM81.3,116.7c1,0,1.4.7,1.4,1.4h-3c.1-.9.7-1.4,1.6-1.4h0ZM87.5,114.2v2.9c-.3-.6-.9-.9-1.6-.9-1.2,0-2,.9-2,2.2s.7,2.2,2,2.2,1.3-.3,1.6-.9v.8h.5v-6.4h-.5ZM86,120.2c-1,0-1.5-.7-1.5-1.8s.5-1.8,1.5-1.8,1.5.5,1.5,1.8-.7,1.8-1.5,1.8h0Z"/>
  <g>
    <path class="cls-1" d="M127.3,21.7v.6h-9.1v-.6c2.6-.1,3.2-1,3-3.6l-.6-12.3-5.9,16.4h-2.3l-6.1-16.4-.3,12.3c0,2.5.5,3.4,2.9,3.6v.6h-7.3v-.6c2.6-.1,2.9-1,3-3.6l.6-11.3c.1-2.5-.5-3.4-3-3.6v-.6h6.2l6.2,17,5.6-17h6.4v.6c-2.6.1-3.1,1-3,3.6l.6,11.3c.1,2.5.5,3.4,3,3.6h0ZM81.4,12.2c3.5,0,4.6-1.7,4.6-4.4s-.9-4.4-3.9-4.4-2.7,1-2.7,3.4v5.4h2.1ZM91.7,2.6h9.1v.6c-2.6.1-3,1-3,3.6v11.3c0,2.5.4,3.4,3,3.6v.6h-9.1c-10,0-8-9.4-11.9-9.4h-.6v5.2c0,2.5.5,3.4,3.1,3.6v.6h-9.1v-.6c2.6-.1,3-1,3-3.6V6.8c0-2.5-.5-3.4-3-3.6v-.6h9.1c5.1,0,7,2.2,7,4.9s-2.2,5-6.6,5.3c4.4,1.5,5.6,8.8,9.7,8.8s2.4-1,2.4-3.6V6.8c0-2.5-.5-3.4-3-3.6v-.6ZM72.3,12.5c0,7.6-6.9,9.8-9.3,10.1v-.6c4.2-1,5.9-4.6,5.9-9.5s-1.8-8.5-5.9-9.5v-.6c2.4.3,9.3,2.6,9.3,10.1h0ZM60.5,2.3v.6c-4.2,1-6,4.6-6,9.5s1.8,8.5,6,9.5v.6c-2.4-.3-9.3-2.6-9.3-10.1s6.9-9.8,9.3-10.1h0ZM17.9,15.2l-3.5-9.6-3.2,9.6h6.7ZM50.8,21.7v.6h-9.2v-.6c2.6-.1,3.2-1,3.1-3.6l-.6-12.3-5.9,16.4h-2.3l-6.1-16.4-.3,12.3c0,2.5.5,3.4,2.9,3.6v.6h-15.4v-.6c2.5-.1,2.5-1.7,1.8-3.6l-.7-2h-7.3l-.7,2c-.6,1.9-.7,3.4,1.8,3.6v.6h-6.4v-.6c2-.1,2.5-1.6,3.2-3.6L14.5,2.6h2l5.5,15.5c.9,2.5,1.2,3.6,3.3,3.6s2.8-1,2.9-3.6l.6-11.3c.1-2.5-.5-3.4-3-3.6v-.6h6.2l6.2,17,5.6-17h6.4v.6c-2.6.1-3.2,1-3.1,3.6l.6,11.3c.1,2.5.5,3.4,3.1,3.6h0Z"/>
    <path class="cls-1" d="M23.4,40.1h.6l-.3,4.3c-1.5.6-3.4,1.2-6.2,1.2-5.1,0-10.7-3.2-10.7-10.1s5.5-10.1,10.7-10.1,4.6.4,6.2,1.2l.3,4.1h-.6c-1.2-3.2-3.3-4.6-5.9-4.6-4.5,0-7.3,3.4-7.3,9.4s2.8,9.4,7.3,9.4,4.7-.9,5.9-4.8h0Z"/>
    <path class="cls-1" d="M44,35.5c0-6-2.8-9.4-7.1-9.4s-7.1,3.4-7.1,9.4,2.8,9.4,7.1,9.4,7.1-3.4,7.1-9.4h0ZM47.3,35.5c0,6.9-5.5,10.1-10.5,10.1s-10.5-3.2-10.5-10.1,5.5-10.1,10.5-10.1,10.5,3.2,10.5,10.1h0Z"/>
    <path class="cls-1" d="M56.6,35.2c3.4,0,4.5-1.8,4.5-4.4s-.9-4.4-3.9-4.4-2.7,1-2.7,3.4v5.4h2.2ZM87.4,44.7v.6h-8.4v-.6c1.4-.1,1.6-.7.2-2.3l-6.3-6.5v5.2c0,2.5.5,3.4,3.1,3.5v.6h-9.1c-10,0-8-9.4-11.8-9.4h-.6v5.2c0,2.5.5,3.4,3.1,3.5v.6h-9.2v-.6c2.6-.1,3.1-1,3.1-3.5v-11.4c0-2.5-.5-3.4-3.1-3.5v-.6h9.2c5.1,0,7,2.2,7,4.9s-2.2,5-6.6,5.3c4.4,1.5,5.6,8.8,9.6,8.8s2.4-1,2.4-3.5v-11.4c0-2.5-.5-3.4-3-3.5v-.6h9.1v.6c-2.6.1-3.1,1-3.1,3.5v5.8l7.2-6.7c1.4-1.3,1.8-2.5,0-2.6v-.6h6.7v.6c-1.6.1-3.5,1.3-5,2.6l-6.1,5.4,6.7,7.1c1.6,1.8,3.5,3.1,5,3.2h0Z"/>
  </g>
  <path class="cls-1" d="M8.6,75.2h1.2v-5.5h7.4v-1h-7.4v-5.2h8.2v-1h-9.4v12.7ZM19.8,65.1h1.4v-1.7h-1.4v1.7ZM19.9,75.2h1.2v-8.5h-1.2v8.5ZM27.9,66.5c-2.9,0-4.8,1.8-4.8,4.4s1.9,4.4,4.8,4.4,4.3-1.7,4.6-3.4l-1-.3c-.5,1.5-1.4,2.8-3.6,2.8s-3.5-1.4-3.5-3.5,1.4-3.5,3.5-3.5,3.1,1.3,3.6,2.8l1-.3c-.4-1.6-1.8-3.4-4.6-3.4h0ZM34.5,62.5v12.7h1.2v-4.5c0-2.3,1.5-3.3,3.2-3.3s2.6,1,2.6,2.4v5.4h1.2v-5.4c0-1.8-.9-3.3-3.6-3.3s-2.7.7-3.4,1.7v-5.7h-1.2ZM47.9,75.3c1.4,0,2.7-.5,3.3-1.6v1.4h1.2v-5.7c0-1.8-1.1-3-3.5-3s-3.5,1.1-3.9,2.1l1,.3c.5-.9,1.2-1.6,2.9-1.6s2.4.6,2.4,2.1v.5l-2,.3c-2.4.4-4.5.9-4.5,2.8s1.3,2.3,3.2,2.3h-.1ZM48.1,74.5c-1.5,0-2.2-.6-2.2-1.5,0-1.3,1.3-1.6,3.2-1.9l2-.3v.6c0,2.6-1.6,3.2-3.1,3.2h0ZM65.8,62.5v5.8c-.7-1.2-2-1.8-3.6-1.8-2.8,0-4.5,1.7-4.5,4.4s1.6,4.4,4.5,4.4,2.9-.6,3.6-1.8v1.6h1.2v-12.7h-1.2ZM62.3,74.5c-2.2,0-3.4-1.4-3.4-3.5s1.2-3.5,3.4-3.5,3.5,1,3.5,3.5-1.6,3.5-3.5,3.5h0ZM78.4,70.6c0-2.4-1.6-4.1-4.6-4.1s-4.8,1.8-4.8,4.4,1.9,4.4,4.8,4.4,4-1.6,4.4-2.8l-1-.3c-.5,1.1-1.2,2.2-3.4,2.2s-3.5-1.4-3.5-3.3h8.1s0-.5,0-.5ZM73.8,67.4c2.2,0,3.2,1.3,3.3,2.9h-6.9c.3-1.7,1.6-2.9,3.5-2.9h0ZM95.5,66.5c-1.6,0-2.8.7-3.6,2-.4-1.2-1.4-2-3.5-2s-2.7.7-3.4,1.7v-1.6h-1.2v8.5h1.2v-4.5c0-2.3,1.5-3.3,3.2-3.3s2.6,1,2.6,2.4v5.4h1.2v-4.5c0-2.3,1.6-3.3,3.2-3.3s2.6,1,2.6,2.4v5.4h1.2v-5.4c0-1.8-.9-3.3-3.6-3.3h.1ZM104.2,75.3c1.4,0,2.7-.5,3.3-1.6v1.4h1.2v-5.7c0-1.8-1.1-3-3.6-3s-3.4,1.1-3.9,2.1l1,.3c.5-.9,1.1-1.6,2.9-1.6s2.4.6,2.4,2.1v.5l-2,.3c-2.5.4-4.5.9-4.5,2.8s1.3,2.3,3.2,2.3h0ZM104.4,74.5c-1.5,0-2.2-.6-2.2-1.5,0-1.3,1.3-1.6,3.2-1.9l2-.3v.6c0,2.6-1.6,3.2-3,3.2h0ZM111,66.7v8.5h1.2v-4.5c0-2,1.1-3.2,2.5-3.2s.9,0,1.2.3l.5-1c-.5-.3-1-.3-1.5-.3-1.2,0-2.2.6-2.7,1.8v-1.6s-1.2,0-1.2,0ZM121.2,66.5c-2.9,0-4.8,1.8-4.8,4.4s1.9,4.4,4.8,4.4,4.3-1.7,4.6-3.4l-1-.3c-.4,1.5-1.4,2.8-3.6,2.8s-3.5-1.4-3.5-3.5,1.4-3.5,3.5-3.5,3.2,1.3,3.6,2.8l1-.3c-.4-1.6-1.8-3.4-4.6-3.4h0ZM130.5,75.3c1.4,0,2.7-.5,3.3-1.6v1.4h1.2v-5.7c0-1.8-1.1-3-3.6-3s-3.4,1.1-3.9,2.1l1,.3c.5-.9,1.1-1.6,2.9-1.6s2.4.6,2.4,2.1v.5l-2,.3c-2.4.4-4.5.9-4.5,2.8s1.3,2.3,3.2,2.3h0ZM130.7,74.5c-1.5,0-2.2-.6-2.2-1.5,0-1.3,1.3-1.6,3.2-1.9l2-.3v.6c0,2.6-1.6,3.2-3,3.2h0ZM141.6,74.5c-2.2,0-3.6-1.4-3.6-3.5s1.4-3.5,3.6-3.5,3.1,1.3,3.6,2.8l1-.3c-.4-1.6-1.8-3.4-4.6-3.4s-4.8,1.8-4.8,4.4,1.7,4.2,4.3,4.4l-.3,1.2c1.8,0,2.3,0,2.3.7s-.4.8-2.7.8v.8c2.7,0,3.8-.5,3.8-1.6s-.7-1.2-2.4-1.2l.2-.7c2.6,0,3.9-1.8,4.3-3.4l-1-.3c-.4,1.5-1.4,2.8-3.6,2.8h-.1ZM149.1,65.1h.9c0-.5.3-.6.6-.6.7,0,1.6.6,2.4.6s1.4-.5,1.4-1.5h-.9c0,.5-.2.6-.5.6-.7,0-1.6-.6-2.4-.6s-1.3.5-1.3,1.5h-.2ZM150.8,75.3c1.4,0,2.7-.5,3.3-1.6v1.4h1.2v-5.7c0-1.8-1.1-3-3.6-3s-3.4,1.1-3.9,2.1l1,.3c.5-.9,1.2-1.6,2.9-1.6s2.4.6,2.4,2.1v.5l-2,.3c-2.5.4-4.5.9-4.5,2.8s1.3,2.3,3.2,2.3h0ZM151,74.5c-1.5,0-2.2-.6-2.2-1.5,0-1.3,1.3-1.6,3.2-1.9l2-.3v.6c0,2.6-1.6,3.2-3.1,3.2h.1ZM162,75.3c2.8,0,4.8-1.8,4.8-4.4s-2-4.4-4.8-4.4-4.8,1.8-4.8,4.4,1.9,4.4,4.8,4.4h0ZM162,74.5c-2.4,0-3.5-1.8-3.5-3.5s1.1-3.5,3.5-3.5,3.5,1.8,3.5,3.5-1.1,3.5-3.5,3.5h0ZM179.9,62.5v5.8c-.7-1.2-2-1.8-3.6-1.8-2.8,0-4.5,1.7-4.5,4.4s1.7,4.4,4.5,4.4,2.9-.6,3.6-1.8v1.6h1.2v-12.7h-1.2ZM176.4,74.5c-2.2,0-3.4-1.4-3.4-3.5s1.2-3.5,3.4-3.5,3.5,1,3.5,3.5-1.6,3.5-3.5,3.5h0ZM192.4,70.6c0-2.4-1.6-4.1-4.6-4.1s-4.8,1.8-4.8,4.4,1.9,4.4,4.8,4.4,4-1.6,4.5-2.8l-1-.3c-.4,1.1-1.2,2.2-3.4,2.2s-3.5-1.4-3.6-3.3h8.1s0-.5,0-.5ZM187.9,67.4c2.2,0,3.2,1.3,3.3,2.9h-6.9c.3-1.7,1.6-2.9,3.5-2.9h0ZM197.9,66.7v8.5h1.2v-4.5c0-2,1.1-3.2,2.5-3.2s.9,0,1.3.3l.5-1c-.5-.3-1-.3-1.5-.3-1.2,0-2.2.6-2.7,1.8v-1.6h-1.3ZM208.2,75.3c2.8,0,4.8-1.8,4.8-4.4s-2-4.4-4.8-4.4-4.8,1.8-4.8,4.4,2,4.4,4.8,4.4h0ZM208.2,74.5c-2.4,0-3.5-1.8-3.5-3.5s1.1-3.5,3.5-3.5,3.6,1.8,3.6,3.5-1.1,3.5-3.6,3.5h0ZM214.9,62.5v12.7h1.2v-12.7s-1.2,0-1.2,0ZM218.5,62.5v12.7h1.2v-4.5c0-2.3,1.5-3.3,3.2-3.3s2.6,1,2.6,2.4v5.4h1.2v-5.4c0-1.8-.9-3.3-3.6-3.3s-2.7.7-3.4,1.7v-5.7h-1.2ZM231.9,75.3c1.4,0,2.7-.5,3.3-1.6v1.4h1.2v-5.7c0-1.8-1.1-3-3.6-3s-3.4,1.1-3.9,2.1l1,.3c.5-.9,1.2-1.6,2.9-1.6s2.4.6,2.4,2.1v.5l-2,.3c-2.5.4-4.5.9-4.5,2.8s1.3,2.3,3.2,2.3h0ZM232.1,74.5c-1.5,0-2.2-.6-2.2-1.5,0-1.3,1.3-1.6,3.2-1.9l2-.3v.6c0,2.6-1.6,3.2-3.1,3.2h.1ZM242.2,66.5c-2,0-3.7.8-3.7,2.4,0,3.5,6.6,1.6,6.6,3.9s-1.2,1.7-2.9,1.7-2.7-.6-3.3-1.3l-.8.6c.7,1,2.2,1.6,4.1,1.6s4.1-.8,4.1-2.6c0-3.5-6.6-1.5-6.6-4s1.1-1.4,2.6-1.4,2.3.7,2.9,1.3l.8-.6c-.7-1-1.8-1.6-3.7-1.6h-.1Z"/>
</svg>