<?xml version="1.0" encoding="UTF-8"?>
<svg id="Layer_1" data-name="Layer 1" xmlns="http://www.w3.org/2000/svg" version="1.1" viewBox="0 0 183 17">
  <defs>
    <style>
      .cls-1 {
        fill: #000;
        stroke-width: 0px;
      }
    </style>
  </defs>
  <path class="cls-1" d="M1.1,12.2h1.4v-2.7h1.6c1.9,0,2.8-1.1,2.8-2.6s-.9-2.5-2.8-2.5H1.1v7.8ZM2.6,8.2v-2.4h1.6c.7,0,1.3.3,1.3,1.2s-.6,1.2-1.3,1.2h-1.6ZM7.7,6.9v5.2h1.4v-2.6c0-.8.4-1.3,1-1.3s.5,0,.8.2l.4-1.5c-.2-.1-.5-.2-.8-.2-.6,0-1.2.4-1.4,1.2v-1.1h-1.4ZM14.1,12.3c1.7,0,2.7-1.1,2.7-2.7s-1-2.7-2.7-2.7-2.7,1.1-2.7,2.7,1,2.7,2.7,2.7h0ZM14.1,11.2c-.9,0-1.3-.7-1.3-1.6s.4-1.6,1.3-1.6,1.3.7,1.3,1.6-.4,1.6-1.3,1.6h0ZM19.1,6.9h-1.4v7.9h1.4v-3.5c.3.6.9.9,1.6.9,1.6,0,2.3-1.1,2.3-2.7s-.8-2.7-2.3-2.7-1.4.4-1.6.9v-.8ZM20.4,11.2c-.8,0-1.3-.5-1.3-1.6s.5-1.6,1.3-1.6,1.2.7,1.2,1.6-.4,1.6-1.2,1.6h0ZM26.5,12.3c1.7,0,2.7-1.1,2.7-2.7s-1-2.7-2.7-2.7-2.7,1.1-2.7,2.7,1,2.7,2.7,2.7h0ZM26.5,11.2c-.9,0-1.3-.7-1.3-1.6s.4-1.6,1.3-1.6,1.3.7,1.3,1.6-.4,1.6-1.3,1.6h0ZM32.2,6.8c-1.2,0-2.2.5-2.2,1.6,0,2.2,3.1,1.3,3.1,2.2s-.5.5-1,.5c-.8,0-1.3-.4-1.7-.7l-.7.9c.6.6,1.4.9,2.4.9,1.4,0,2.4-.7,2.4-1.7,0-2.1-3.2-1.3-3.2-2.2s.3-.4.9-.4,1.1.4,1.4.7l.8-.8c-.5-.6-1.2-.9-2.2-.9h0ZM38.5,11c-.2.1-.4.2-.7.2-.6,0-.8-.3-.8-.9v-2.4h1.6v-1.1h-1.6v-1.4h-1v.3c-.3,1-.5,1.1-1.1,1.1h-.1v1.1h.8v2.4c0,1.2.6,1.9,2,1.9s.9-.1,1.2-.3l-.4-.9ZM40.9,12.3c.7,0,1.3-.3,1.7-.9v.7h1.4v-3.4c0-1.2-.8-1.9-2.3-1.9s-2.2.8-2.4,1.5l1.2.3c.2-.4.5-.7,1.1-.7s1,.3,1,.8v.2h-.9c-1.3.4-2.5.6-2.5,1.9s.7,1.5,1.7,1.5h0ZM41.4,11.2c-.5,0-.8-.2-.8-.6s.5-.6,1.1-.7h.9c0-.1,0,0,0,0,0,1-.5,1.3-1.1,1.3h0ZM46.9,6.9v5.2h1.4v-2.8c0-.9.5-1.4,1.2-1.4s1,.5,1,1.1v3.1h1.4v-3.3c0-1.2-.6-2-1.9-2s-1.3.3-1.7.9v-.8h-1.4ZM54.6,4.3c-1.1,0-1.7.7-1.7,1.6s.6,1.6,1.7,1.6,1.7-.7,1.7-1.6-.6-1.6-1.7-1.6h0ZM54.6,6.7c-.5,0-.7-.4-.7-.9s.2-.9.7-.9.7.4.7.9-.2.9-.7.9h0ZM52.9,8.2v.8h3.4v-.8h-3.4ZM57.4,8.6h1.5v-1.5h-1.5v1.5ZM57.4,11.4h1.5v-1.5h-1.5v1.5Z"/>
  <path class="cls-1" d="M67.9,12.2h.7v-7.1h-.6c-.5.6-1.2.9-1.7,1.1v.6c.6-.1,1.2-.4,1.7-.9v6.4Z"/>
  <path class="cls-1" d="M84.6,4.4h-2.7v7.8h2.7c2.6,0,4-1.7,4-3.9s-1.4-3.9-4-3.9h0ZM84.6,10.8h-1.4v-5.1h1.4c1.7,0,2.6.9,2.6,2.5s-.9,2.5-2.6,2.5h0ZM91.1,12.3c.6,0,1.3-.3,1.7-.9v.7h1.4v-3.4c0-1.2-.8-1.9-2.3-1.9s-2.2.8-2.4,1.5l1.2.3c.2-.4.5-.7,1.1-.7s1,.3,1,.8v.2h-.8c-1.3.4-2.5.6-2.5,1.9s.7,1.5,1.8,1.5h0ZM91.6,11.2c-.5,0-.8-.2-.8-.6s.4-.6,1.1-.7h.8c0-.1,0,0,0,0,0,1-.5,1.3-1.1,1.3h0ZM98.3,11c-.2.1-.4.2-.7.2-.6,0-.8-.3-.8-.9v-2.4h1.6v-1.1h-1.6v-1.4h-1v.3c-.4,1-.5,1.1-1.1,1.1h-.1v1.1h.7v2.4c0,1.2.6,1.9,2,1.9s1-.1,1.2-.3l-.4-.9ZM100.8,12.3c.7,0,1.3-.3,1.7-.9v.7h1.4v-3.4c0-1.2-.8-1.9-2.3-1.9s-2.2.8-2.4,1.5l1.2.3c.2-.4.5-.7,1.1-.7s.9.3.9.8v.2h-.8c-1.3.4-2.5.6-2.5,1.9s.7,1.5,1.8,1.5h0ZM101.2,11.2c-.5,0-.8-.2-.8-.6s.4-.6,1.1-.7h.8c0-.1,0,0,0,0,0,1-.5,1.3-1.1,1.3h0ZM104.8,8.6h1.5v-1.5h-1.5v1.5ZM104.8,11.4h1.5v-1.5h-1.5v1.5Z"/>
  <path class="cls-1" d="M117.8,12.2h.7v-7.1h-.6c-.6.6-1.2.9-1.8,1.1v.6c.6-.1,1.3-.4,1.7-.9v6.4ZM123.1,7.5c-.9,0-1.6.3-2,.7l.4-2.6h3.6v-.5h-4.2l-.6,3.9h.7c.4-.5.9-.9,2-.9s1.9.8,1.9,1.8-.8,1.9-2.1,1.9-2-.4-2-1.4h-.7c0,1.4,1.3,1.9,2.7,1.9s2.8-.8,2.8-2.4-.6-2.3-2.5-2.3h0ZM126.7,12.2l4-7.1h-.7l-4,7.1h.7ZM134.3,5c-2.1,0-3,1.5-3,3.6s.9,3.6,3,3.6,3-1.5,3-3.6-.9-3.6-3-3.6h0ZM134.3,11.7c-1.6,0-2.3-1.2-2.3-3.1s.7-3.1,2.3-3.1,2.3,1.3,2.3,3.1-.7,3.1-2.3,3.1h0ZM139.5,12.2h.7c.2-2.6,1.4-4.4,3.1-6.5v-.5h-5.2v.5h4.5c-1.8,2.1-2.9,3.8-3.1,6.5h0ZM144.4,12.2l4-7.1h-.7l-4,7.1h.7ZM148.8,12.2h5.4v-.6h-4.7v-.2c0-1.9,4.6-1.8,4.6-4.4s-1.1-2-2.5-2-2.6.5-2.6,1.9h.7c0-1.1.9-1.4,2-1.4s1.8.5,1.8,1.5c0,2.1-4.6,2-4.6,4.4v.8ZM158.1,5c-2.1,0-3,1.5-3,3.6s.9,3.6,3,3.6,3-1.5,3-3.6-.9-3.6-3-3.6h0ZM158.1,11.7c-1.6,0-2.3-1.2-2.3-3.1s.7-3.1,2.3-3.1,2.3,1.3,2.3,3.1-.7,3.1-2.3,3.1h0ZM162.1,12.2h5.3v-.6h-4.6v-.2c0-1.9,4.6-1.8,4.6-4.4s-1.1-2-2.5-2-2.6.5-2.6,1.9h.7c0-1.1.9-1.4,1.9-1.4s1.9.5,1.9,1.5c0,2.1-4.6,2-4.6,4.4v.8ZM172.3,12.2h.7v-1.7h1.2v-.6h-1.2v-4.8h-.9l-3.9,4.8v.6h4.1v1.7ZM169,9.9l3.3-4.1v4.1h-3.3Z"/>
</svg>